<svg width="77" height="46" viewBox="0 0 77 46" fill="none" xmlns="http://www.w3.org/2000/svg">
<circle opacity="0.5" cx="64" cy="14" r="13" fill="#CCA0D7"/>
<path d="M60 13C60 12.4477 59.5523 12 59 12H20C19.4477 12 19 12.4477 19 13V37C19 37.5523 19.4477 38 20 38H48.4593C48.9905 38 49.5121 38.141 49.9709 38.4087L58.4961 43.3817C59.1628 43.7706 60 43.2897 60 42.5179V39V13Z" stroke="#6846A0" stroke-width="2"/>
<path d="M1 2C1 1.44772 1.44772 1 2 1H41C41.5523 1 42 1.44772 42 2V26C42 26.5523 41.5523 27 41 27H12.5407C12.0095 27 11.4879 27.141 11.0291 27.4087L2.50387 32.3817C1.83721 32.7706 1 32.2897 1 31.5179V28V2Z" fill="white" stroke="#6846A0" stroke-width="2"/>
<circle cx="15" cy="14" r="2" fill="#6846A0"/>
<circle cx="22" cy="14" r="2" fill="#6846A0"/>
<circle cx="29" cy="14" r="2" fill="#6846A0"/>
</svg>
