<svg width="42" height="42" viewBox="0 0 42 42" fill="none" xmlns="http://www.w3.org/2000/svg">
<circle cx="21" cy="21" r="21" fill="#6846A0"/>
<path d="M20.375 28.6875C19.875 27.9583 19.3021 27.1354 18.6562 26.2188C18.0312 25.3021 17.5833 24.6562 17.3125 24.2812C17.0417 23.9062 16.7292 23.4479 16.375 22.9062C16.0208 22.3438 15.7812 21.9479 15.6562 21.7188C15.5521 21.4896 15.4271 21.1979 15.2812 20.8438C15.1562 20.4896 15.0729 20.1875 15.0312 19.9375C15.0104 19.6667 15 19.3542 15 19C15 17.3333 15.5833 15.9167 16.75 14.75C17.9167 13.5833 19.3333 13 21 13C22.6667 13 24.0833 13.5833 25.25 14.75C26.4167 15.9167 27 17.3333 27 19C27 19.3542 26.9792 19.6667 26.9375 19.9375C26.9167 20.1875 26.8333 20.4896 26.6875 20.8438C26.5625 21.1979 26.4375 21.4896 26.3125 21.7188C26.2083 21.9479 25.9792 22.3438 25.625 22.9062C25.2708 23.4479 24.9583 23.9062 24.6875 24.2812C24.4167 24.6562 23.9583 25.3021 23.3125 26.2188C22.6875 27.1354 22.125 27.9583 21.625 28.6875C21.4792 28.8958 21.2708 29 21 29C20.7292 29 20.5208 28.8958 20.375 28.6875ZM19.2188 20.7812C19.7188 21.2604 20.3125 21.5 21 21.5C21.6875 21.5 22.2708 21.2604 22.75 20.7812C23.25 20.2812 23.5 19.6875 23.5 19C23.5 18.3125 23.25 17.7292 22.75 17.25C22.2708 16.75 21.6875 16.5 21 16.5C20.3125 16.5 19.7188 16.75 19.2188 17.25C18.7396 17.7292 18.5 18.3125 18.5 19C18.5 19.6875 18.7396 20.2812 19.2188 20.7812Z" fill="#E4B5F0"/>
</svg>
