<svg width="16" height="16" viewBox="0 0 16 16" fill="none" xmlns="http://www.w3.org/2000/svg">
<path d="M3.51562 15.75H0.246094V5.23828H3.51562V15.75ZM1.89844 3.79688C1.38281 3.79688 0.9375 3.60938 0.5625 3.23438C0.1875 2.85938 0 2.41406 0 1.89844C0 1.38281 0.1875 0.9375 0.5625 0.5625C0.9375 0.1875 1.38281 0 1.89844 0C2.22656 0 2.53125 0.0820312 2.8125 0.246094C3.11719 0.410156 3.35156 0.644531 3.51562 0.949219C3.70312 1.23047 3.79688 1.54688 3.79688 1.89844C3.79688 2.22656 3.70312 2.54297 3.51562 2.84766C3.35156 3.12891 3.11719 3.36328 2.8125 3.55078C2.53125 3.71484 2.22656 3.79688 1.89844 3.79688ZM15.75 15.75H12.4805V10.6172C12.4805 10.2188 12.4688 9.90234 12.4453 9.66797C12.4219 9.41016 12.3633 9.12891 12.2695 8.82422C12.1758 8.49609 12 8.25 11.7422 8.08594C11.5078 7.92188 11.1914 7.83984 10.793 7.83984C10.0195 7.83984 9.49219 8.08594 9.21094 8.57812C8.95312 9.07031 8.82422 9.72656 8.82422 10.5469V15.75H5.55469V5.23828H8.71875V6.67969H8.75391C8.98828 6.21094 9.375 5.8125 9.91406 5.48438C10.4531 5.13281 11.0977 4.95703 11.8477 4.95703C12.6445 4.95703 13.3008 5.08594 13.8164 5.34375C14.3555 5.57812 14.7539 5.94141 15.0117 6.43359C15.293 6.90234 15.4805 7.41797 15.5742 7.98047C15.6914 8.54297 15.75 9.21094 15.75 9.98438V15.75Z" fill="white"/>
</svg>
