<svg width="19" height="18" viewBox="0 0 19 18" fill="none" xmlns="http://www.w3.org/2000/svg">
<path d="M16.7369 0.107666C17.0416 -0.0563965 17.3345 -0.032959 17.6158 0.177979C17.9205 0.365479 18.0494 0.63501 18.0025 0.986572L15.4713 16.1741C15.4244 16.4319 15.272 16.6311 15.0142 16.7717C14.7799 16.9124 14.5455 16.9241 14.3111 16.8069L9.91657 14.9788L7.66657 17.6858C7.4322 17.9905 7.12751 18.0725 6.75251 17.9319C6.37751 17.8147 6.19001 17.5569 6.19001 17.1584V14.3108L14.6627 4.01001C14.733 3.89282 14.7213 3.79907 14.6275 3.72876C14.5338 3.63501 14.44 3.62329 14.3463 3.6936L4.25642 12.5881L0.529855 11.0413C0.20173 10.9006 0.0259487 10.6545 0.00251116 10.303C-0.0209263 9.95142 0.119699 9.6936 0.424386 9.52954L16.7369 0.107666Z" fill="white"/>
</svg>
